<svg width="1512" height="982" viewBox="0 0 1512 982" fill="none" xmlns="http://www.w3.org/2000/svg">
<g clip-path="url(#clip0_11_123)">
<path d="M1512 0H0V982H1512V0Z" fill="#F05119"/>
<path opacity="0.1" d="M0 982V163.667C77.9605 143.204 155.921 122.741 239.4 119.113C322.879 115.485 411.877 128.693 488.25 121.841C564.623 114.989 628.372 88.0769 718.988 111.839C809.603 135.601 927.083 210.037 1012.73 209.13C1098.37 208.223 1152.17 131.973 1230.08 111.839C1307.98 91.7046 1409.99 127.686 1512 163.667V982H0Z" fill="#F0A719"/>
<path opacity="0.2" d="M0 982V327.333C100.467 348.801 200.934 370.269 277.2 383.707C353.466 397.146 405.532 402.555 478.8 374.615C552.068 346.675 646.538 285.386 751.275 288.235C856.013 291.084 971.018 358.071 1044.22 380.98C1117.43 403.888 1148.84 382.719 1219.84 366.431C1290.83 350.144 1401.42 338.739 1512 327.333V982H0Z" fill="#F0A719"/>
<path opacity="0.3" d="M0 982V491C77.7666 496.292 155.533 501.585 250.425 504.639C345.317 507.693 457.334 508.509 548.888 508.276C640.441 508.043 711.533 506.761 780.413 509.185C849.293 511.61 915.961 517.742 990.675 501.911C1065.39 486.081 1148.15 448.288 1236.38 442.809C1324.6 437.33 1418.3 464.165 1512 491V982H0Z" fill="#F0A719"/>
<path opacity="0.4" d="M0 982V654.667C71.8846 640.118 143.769 625.57 241.763 636.481C339.756 647.393 463.858 683.763 545.737 689.218C627.617 694.674 667.275 669.215 736.312 652.848C805.35 636.481 903.767 629.207 989.1 645.574C1074.43 661.941 1146.68 701.948 1231.65 707.404C1316.62 712.859 1414.31 683.763 1512 654.667V982H0Z" fill="#F0A719"/>
<path opacity="0.5" d="M0 982V818.333C94.1668 803.081 188.334 787.829 259.087 790.146C329.841 792.464 377.182 812.351 465.413 827.426C553.643 842.501 682.763 852.764 777.263 837.428C871.763 822.092 931.643 781.156 1008 763.778C1084.36 746.399 1177.19 752.578 1263.94 765.596C1350.68 778.615 1431.34 798.474 1512 818.333V982H0Z" fill="#F0A719"/>
</g>
<defs>
<clipPath id="clip0_11_123">
<rect width="1512" height="982" fill="white"/>
</clipPath>
</defs>
</svg>
