<svg width="86" height="130" viewBox="0 0 86 130" fill="none" xmlns="http://www.w3.org/2000/svg">
<path d="M16.2291 79.5C2.22911 63.5 15.0624 44.5 23.2291 37C25.2291 55 29.2291 52 47.7291 77.5C62.5291 97.9 50.2291 114.333 42.2291 120C40.7291 108 33.7291 99.5 16.2291 79.5Z" fill="#F8F9FA"/>
<path d="M37 52.5C23 36.5 35.8333 17.5 44 10C46 28 50 25 68.5 50.5C83.3 70.9 71 87.3333 63 93C61.5 81 54.5 72.5 37 52.5Z" fill="#F8F9FA"/>
<path d="M16.2291 79.5C2.22911 63.5 15.0624 44.5 23.2291 37C25.2291 55 29.2291 52 47.7291 77.5C62.5291 97.9 50.2291 114.333 42.2291 120C40.7291 108 33.7291 99.5 16.2291 79.5Z" stroke="#F8F9FA" stroke-width="2"/>
<path d="M37 52.5C23 36.5 35.8333 17.5 44 10C46 28 50 25 68.5 50.5C83.3 70.9 71 87.3333 63 93C61.5 81 54.5 72.5 37 52.5Z" stroke="#F8F9FA" stroke-width="2"/>
</svg>
