<svg width="250" height="250" viewBox="0 0 250 250" fill="none" xmlns="http://www.w3.org/2000/svg">
<g clip-path="url(#clip0_37_2)">
<path d="M125 248.047C57.1484 248.047 1.95312 192.852 1.95312 125C1.95312 57.1484 57.1484 1.95312 125 1.95312C192.852 1.95312 248.047 57.1484 248.047 125C248.047 192.852 192.852 248.047 125 248.047Z" fill="white"/>
<path d="M125 3.90625C191.773 3.90625 246.094 58.2266 246.094 125C246.094 191.773 191.773 246.094 125 246.094C58.2266 246.094 3.90625 191.773 3.90625 125C3.90625 58.2266 58.2266 3.90625 125 3.90625ZM125 0C55.9609 0 0 55.9609 0 125C0 194.039 55.9609 250 125 250C194.039 250 250 194.039 250 125C250 55.9609 194.039 0 125 0Z" fill="#D6D6D6"/>
<path d="M125 115.297C141.642 115.297 155.133 102.075 155.133 85.7656C155.133 69.456 141.642 56.2344 125 56.2344C108.358 56.2344 94.8672 69.456 94.8672 85.7656C94.8672 102.075 108.358 115.297 125 115.297Z" fill="#F05119"/>
<path d="M177.047 176.086C177.047 147.914 153.742 125.078 125 125.078C96.2578 125.078 72.9531 147.914 72.9531 176.086H177.047Z" fill="#F05119"/>
</g>
<defs>
<clipPath id="clip0_37_2">
<rect width="250" height="250" fill="white"/>
</clipPath>
</defs>
</svg>
